<svg width="19" height="20" viewBox="0 0 19 20" fill="none" xmlns="http://www.w3.org/2000/svg">
<path d="M9.34702 18.736C8.59002 19.721 7.01502 19.207 6.98502 17.965L6.74602 8.10503C6.74008 7.86837 6.79805 7.63448 6.91381 7.42798C7.02958 7.22148 7.19887 7.05 7.40386 6.93159C7.60886 6.81318 7.84198 6.75221 8.0787 6.7551C8.31542 6.758 8.54698 6.82464 8.74902 6.94803L17.169 12.085C18.229 12.732 17.887 14.353 16.656 14.516L12.669 15.043C12.323 15.089 12.009 15.27 11.797 15.546L9.34702 18.736Z" stroke="black" stroke-width="1.5" stroke-linejoin="round"/>
<path d="M0.75 6.752H3.25M7 3.25V0.75M3.768 3.767L2 2M10.232 3.767L12 2" stroke="black" stroke-width="1.5" stroke-linecap="round" stroke-linejoin="round"/>
</svg>
