<svg width="24" height="24" viewBox="0 0 24 24" fill="none" xmlns="http://www.w3.org/2000/svg">
<path d="M12.9999 21H20.9999M21.1739 6.81202C21.4357 6.55029 21.6434 6.23957 21.7851 5.89758C21.9268 5.5556 21.9998 5.18905 21.9998 4.81887C21.9999 4.44869 21.927 4.08212 21.7854 3.7401C21.6438 3.39808 21.4362 3.08731 21.1744 2.82552C20.9127 2.56372 20.602 2.35605 20.26 2.21434C19.918 2.07264 19.5515 1.99968 19.1813 1.99963C18.8111 1.99959 18.4445 2.07245 18.1025 2.21407C17.7605 2.35569 17.4497 2.56329 17.1879 2.82502L3.84193 16.174C3.60975 16.4055 3.43805 16.6905 3.34193 17.004L2.02093 21.356C1.99509 21.4425 1.99314 21.5344 2.01529 21.6219C2.03743 21.7094 2.08285 21.7892 2.14673 21.853C2.21061 21.9168 2.29055 21.9621 2.37809 21.9841C2.46563 22.0061 2.55749 22.004 2.64393 21.978L6.99693 20.658C7.3101 20.5628 7.59511 20.3921 7.82693 20.161L21.1739 6.81202Z" stroke="#174143" stroke-width="2" stroke-linecap="round" stroke-linejoin="round"/>
</svg>
