<svg width="37" height="37" viewBox="0 0 37 37" fill="none" xmlns="http://www.w3.org/2000/svg">
<path d="M9.24992 29.2916H14.9418V21.4646C14.9418 21.1121 15.0615 20.8166 15.301 20.5781C15.5394 20.3386 15.8349 20.2189 16.1874 20.2189H20.8124C21.1649 20.2189 21.4609 20.3386 21.7004 20.5781C21.9389 20.8166 22.0581 21.1121 22.0581 21.4646V29.2916H27.7499V15.8915C27.7499 15.7332 27.7155 15.5893 27.6466 15.4598C27.5778 15.3303 27.4837 15.2172 27.3645 15.1206L19.0642 8.86454C18.9059 8.72682 18.7178 8.65796 18.4999 8.65796C18.282 8.65796 18.0945 8.72682 17.9372 8.86454L9.63534 15.1206C9.51714 15.2193 9.4231 15.3323 9.35321 15.4598C9.28332 15.5872 9.24889 15.7311 9.24992 15.8915V29.2916ZM7.70825 29.2916V15.8915C7.70825 15.4968 7.79664 15.1232 7.97342 14.7707C8.1502 14.4181 8.39378 14.1278 8.70417 13.8996L17.006 7.61271C17.4408 7.28073 17.9372 7.11475 18.4953 7.11475C19.0534 7.11475 19.5529 7.28073 19.9938 7.61271L28.2957 13.8981C28.6071 14.1262 28.8507 14.4171 29.0264 14.7707C29.2032 15.1232 29.2916 15.4968 29.2916 15.8915V29.2916C29.2916 29.7048 29.1379 30.065 28.8306 30.3723C28.5233 30.6796 28.1631 30.8333 27.7499 30.8333H21.7621C21.4085 30.8333 21.1125 30.7141 20.8741 30.4756C20.6356 30.2361 20.5164 29.9401 20.5164 29.5876V21.7621H16.4834V29.5876C16.4834 29.9412 16.3642 30.2372 16.1258 30.4756C15.8873 30.7141 15.5918 30.8333 15.2393 30.8333H9.24992C8.83675 30.8333 8.47652 30.6796 8.16921 30.3723C7.8619 30.065 7.70825 29.7048 7.70825 29.2916Z" fill="#174143"/>
</svg>
