<svg width="31" height="31" viewBox="0 0 31 31" fill="none" xmlns="http://www.w3.org/2000/svg">
<path d="M21.3125 6.45833V3.875M9.6875 6.45833V3.875M4.19792 10.3333H26.8021M3.875 12.9735C3.875 10.2416 3.875 8.87504 4.43817 7.83138C4.9474 6.90048 5.73758 6.15415 6.696 5.69883C7.80167 5.16667 9.24833 5.16667 12.1417 5.16667H18.8583C21.7517 5.16667 23.1983 5.16667 24.304 5.69883C25.2766 6.16642 26.0658 6.913 26.5618 7.83008C27.125 8.87633 27.125 10.2429 27.125 12.9748V19.3195C27.125 22.0513 27.125 23.4179 26.5618 24.4616C26.0526 25.3925 25.2624 26.1388 24.304 26.5941C23.1983 27.125 21.7517 27.125 18.8583 27.125H12.1417C9.24833 27.125 7.80167 27.125 6.696 26.5928C5.73777 26.1379 4.94761 25.392 4.43817 24.4616C3.875 23.4153 3.875 22.0487 3.875 19.3169V12.9735Z" stroke="#174143" stroke-width="1.5" stroke-linecap="round" stroke-linejoin="round"/>
</svg>
