<svg width="20" height="20" viewBox="0 0 20 20" fill="none" xmlns="http://www.w3.org/2000/svg">
<path fill-rule="evenodd" clip-rule="evenodd" d="M9.99994 1.25C9.66842 1.25 9.35047 1.3817 9.11605 1.61612C8.88163 1.85054 8.74994 2.16848 8.74994 2.5V2.625C7.33823 2.91316 6.06944 3.68023 5.1583 4.79637C4.24717 5.91252 3.74964 7.30918 3.74994 8.75V13.75L2.24369 15.41C1.51494 16.2137 2.08494 17.5 3.16869 17.5H7.83494C8.05437 17.88 8.36996 18.1956 8.74999 18.415C9.13003 18.6344 9.56112 18.7499 9.99994 18.7499C10.4388 18.7499 10.8698 18.6344 11.2499 18.415C11.6299 18.1956 11.9455 17.88 12.1649 17.5H16.8312C17.9149 17.5 18.4849 16.2125 17.7562 15.41L16.2499 13.75V8.75C16.2502 7.30918 15.7527 5.91252 14.8416 4.79637C13.9304 3.68023 12.6616 2.91316 11.2499 2.625V2.5C11.2499 2.16848 11.1182 1.85054 10.8838 1.61612C10.6494 1.3817 10.3315 1.25 9.99994 1.25ZM5.62494 14.475L5.13744 15.01L4.57994 15.625H15.4199L14.8612 15.01L14.3749 14.4737V8.75C14.3749 8.17547 14.2618 7.60656 14.0419 7.07576C13.822 6.54496 13.4998 6.06266 13.0935 5.65641C12.6873 5.25015 12.205 4.92789 11.6742 4.70803C11.1434 4.48816 10.5745 4.375 9.99994 4.375C9.4254 4.375 8.8565 4.48816 8.3257 4.70803C7.7949 4.92789 7.3126 5.25015 6.90634 5.65641C6.50009 6.06266 6.17783 6.54496 5.95796 7.07576C5.7381 7.60656 5.62494 8.17547 5.62494 8.75V14.475Z" fill="#174143"/>
</svg>
