<svg width="31" height="31" viewBox="0 0 31 31" fill="none" xmlns="http://www.w3.org/2000/svg">
<path opacity="0.5" d="M15.5 10.3333V15.4999L18.7292 18.7291" stroke="#174143" stroke-width="1.5" stroke-linecap="round" stroke-linejoin="round"/>
<path d="M5.60327 8.87497L4.63452 8.87884C4.63553 9.13421 4.73734 9.37884 4.91779 9.55953C5.09824 9.74023 5.34274 9.84236 5.5981 9.84372L5.60327 8.87497ZM8.88668 9.85922C9.0139 9.85981 9.13999 9.83534 9.25775 9.78721C9.37551 9.73907 9.48264 9.66821 9.57302 9.57868C9.66339 9.48914 9.73525 9.38268 9.78448 9.26537C9.83371 9.14806 9.85936 9.02221 9.85995 8.89499C9.86055 8.76777 9.83608 8.64168 9.78794 8.52392C9.73981 8.40616 9.66895 8.29903 9.57941 8.20866C9.48987 8.11828 9.38341 8.04642 9.26611 7.99719C9.1488 7.94796 9.02294 7.92231 8.89572 7.92172L8.88668 9.85922ZM6.55522 5.58122C6.55455 5.454 6.52882 5.32816 6.47951 5.21089C6.43019 5.09361 6.35827 4.9872 6.26783 4.89772C6.17739 4.80825 6.07022 4.73746 5.95243 4.6894C5.83463 4.64134 5.70853 4.61696 5.58131 4.61764C5.45409 4.61831 5.32825 4.64404 5.21098 4.69335C5.0937 4.74267 4.98729 4.81459 4.89781 4.90503C4.80833 4.99547 4.73755 5.10264 4.68949 5.22043C4.64143 5.33823 4.61705 5.46433 4.61772 5.59155L6.55522 5.58122ZM4.94322 13.9306C4.96179 13.8039 4.95508 13.6749 4.92349 13.5509C4.89191 13.4269 4.83607 13.3104 4.7592 13.2081C4.68233 13.1058 4.58595 13.0197 4.47564 12.9549C4.36532 12.89 4.24325 12.8477 4.11648 12.8303C3.9897 12.8129 3.86074 12.8208 3.73703 12.8535C3.61332 12.8862 3.49731 12.9431 3.39572 13.0209C3.29413 13.0987 3.20895 13.1959 3.14512 13.3068C3.08128 13.4177 3.04005 13.5401 3.02381 13.6671L4.94322 13.9306ZM24.3634 6.63651C19.4293 1.70234 11.4558 1.65068 6.55393 6.55384L7.9231 7.92301C12.0564 3.79097 18.8028 3.81551 22.9943 8.00568L24.3634 6.63651ZM6.6366 24.3633C11.5708 29.2975 19.5442 29.3492 24.4461 24.446L23.0769 23.0768C18.9436 27.2089 12.1972 27.1843 8.00577 22.9942L6.6366 24.3633ZM24.4461 24.446C29.348 19.5441 29.2976 11.5707 24.3634 6.63651L22.9943 8.00568C27.1844 12.1971 27.209 18.9435 23.0769 23.0768L24.4461 24.446ZM6.55393 6.55384L4.91739 8.18909L6.28785 9.55826L7.9231 7.92301L6.55393 6.55384ZM5.5981 9.84372L8.88668 9.85922L8.89572 7.92172L5.60843 7.90622L5.5981 9.84372ZM6.57202 8.8698L6.55522 5.58122L4.61772 5.59155L4.63452 8.87884L6.57202 8.8698ZM3.02252 13.6658C2.75693 15.6066 2.94495 17.5826 3.57181 19.4385C4.19867 21.2944 5.24729 22.9797 6.63531 24.3621L8.00447 22.9929C6.82789 21.8218 5.93896 20.3938 5.40756 18.8211C4.87616 17.2485 4.71677 15.574 4.94193 13.9293L3.02252 13.6658Z" fill="#174143"/>
</svg>
