<svg width="31" height="31" viewBox="0 0 31 31" fill="none" xmlns="http://www.w3.org/2000/svg">
<path fill-rule="evenodd" clip-rule="evenodd" d="M9.81425 5.79571C10.1591 4.10363 11.6652 2.90625 13.3896 2.90625H17.6107C19.3351 2.90625 20.8399 4.10363 21.1861 5.79571C21.2242 5.98203 21.324 6.1501 21.4692 6.27287C21.6145 6.39564 21.7968 6.46597 21.9869 6.47254H22.0295C23.8417 6.55263 25.2342 6.77479 26.3967 7.53817C27.129 8.01867 27.7594 8.63608 28.2502 9.35812C28.8612 10.2545 29.1298 11.2853 29.259 12.5305C29.3856 13.7485 29.3856 15.274 29.3856 17.2063V17.3161C29.3856 19.2484 29.3856 20.7752 29.259 21.9919C29.1298 23.2371 28.8612 24.2678 28.2502 25.1655C27.7567 25.887 27.1271 26.5052 26.3967 26.9855C25.4886 27.581 24.4462 27.8445 23.183 27.9697C21.9456 28.0937 20.3943 28.0938 18.4232 28.0938H12.5771C10.606 28.0938 9.05475 28.0937 7.81733 27.9697C6.55408 27.8445 5.5117 27.5822 4.60366 26.9855C3.87315 26.5049 3.24352 25.8862 2.75012 25.1642C2.13916 24.2678 1.8705 23.2371 1.74133 21.9919C1.61475 20.7752 1.61475 19.2484 1.61475 17.3161V17.2063C1.61475 15.274 1.61475 13.7485 1.74133 12.5305C1.8705 11.2853 2.13916 10.2545 2.75012 9.35812C3.24352 8.63617 3.87315 8.01751 4.60366 7.53687C5.76616 6.77479 7.15858 6.55262 8.97079 6.47383L8.99275 6.47254H9.01341C9.20349 6.46597 9.38583 6.39564 9.53109 6.27287C9.67636 6.1501 9.77609 5.98203 9.81425 5.79571ZM13.3896 4.84375C12.5629 4.84375 11.8693 5.41596 11.713 6.18192C11.4611 7.42192 10.3606 8.39842 9.03666 8.41004C7.2955 8.48754 6.36291 8.70067 5.66541 9.15792C5.14803 9.49882 4.70188 9.93708 4.35179 10.4483C3.99529 10.9714 3.78087 11.6418 3.6672 12.7307C3.55354 13.8363 3.55225 15.2623 3.55225 17.2618C3.55225 19.2613 3.55225 20.686 3.6685 21.7917C3.78087 22.8806 3.99529 23.551 4.35308 24.0754C4.69925 24.5843 5.14487 25.0235 5.6667 25.3657C6.20533 25.7184 6.89508 25.9315 8.00979 26.0426C9.13871 26.155 10.5931 26.1562 12.6301 26.1562H18.3702C20.4059 26.1562 21.8603 26.1562 22.9905 26.0426C24.1052 25.9315 24.795 25.7197 25.3336 25.3657C25.8555 25.0235 26.3024 24.5843 26.6485 24.0741C27.005 23.551 27.2195 22.8806 27.3331 21.7917C27.4468 20.686 27.4481 19.26 27.4481 17.2618C27.4481 15.2636 27.4481 13.8363 27.3318 12.7307C27.2195 11.6418 27.005 10.9714 26.6472 10.4483C26.2973 9.93661 25.8511 9.49791 25.3336 9.15663C24.6387 8.70067 23.7061 8.48754 21.9624 8.41004C20.6397 8.39713 19.5392 7.42321 19.2873 6.18192C19.2047 5.79993 18.9927 5.45818 18.6872 5.21438C18.3818 4.97058 18.0016 4.83967 17.6107 4.84375H13.3896ZM15.5002 13.8854C14.7294 13.8854 13.9902 14.1916 13.4451 14.7366C12.9001 15.2817 12.5939 16.0209 12.5939 16.7917C12.5939 17.5625 12.9001 18.3017 13.4451 18.8467C13.9902 19.3917 14.7294 19.6979 15.5002 19.6979C16.2709 19.6979 17.0102 19.3917 17.5552 18.8467C18.1002 18.3017 18.4064 17.5625 18.4064 16.7917C18.4064 16.0209 18.1002 15.2817 17.5552 14.7366C17.0102 14.1916 16.2709 13.8854 15.5002 13.8854ZM10.6564 16.7917C10.6564 15.507 11.1667 14.275 12.0751 13.3666C12.9835 12.4582 14.2155 11.9479 15.5002 11.9479C16.7848 11.9479 18.0168 12.4582 18.9252 13.3666C19.8336 14.275 20.3439 15.507 20.3439 16.7917C20.3439 18.0763 19.8336 19.3083 18.9252 20.2167C18.0168 21.1251 16.7848 21.6354 15.5002 21.6354C14.2155 21.6354 12.9835 21.1251 12.0751 20.2167C11.1667 19.3083 10.6564 18.0763 10.6564 16.7917ZM22.2814 12.9167C22.2814 12.6597 22.3835 12.4133 22.5652 12.2317C22.7468 12.05 22.9932 11.9479 23.2502 11.9479H24.5418C24.7988 11.9479 25.0452 12.05 25.2268 12.2317C25.4085 12.4133 25.5106 12.6597 25.5106 12.9167C25.5106 13.1736 25.4085 13.42 25.2268 13.6017C25.0452 13.7834 24.7988 13.8854 24.5418 13.8854H23.2502C22.9932 13.8854 22.7468 13.7834 22.5652 13.6017C22.3835 13.42 22.2814 13.1736 22.2814 12.9167Z" fill="#174143"/>
</svg>
