<svg width="29" height="29" viewBox="0 0 29 29" fill="none" xmlns="http://www.w3.org/2000/svg">
<path d="M8.73266 8.73257C8.90258 8.56285 9.13291 8.46753 9.37307 8.46753C9.61323 8.46753 9.84357 8.56285 10.0135 8.73257L14.5 13.2179L18.9854 8.73257C19.1562 8.5674 19.3851 8.47595 19.6227 8.4779C19.8603 8.47985 20.0877 8.57505 20.2558 8.743C20.4239 8.91095 20.5193 9.1382 20.5215 9.37582C20.5236 9.61344 20.4324 9.8424 20.2674 10.0134L15.7821 14.4999L20.2674 18.9853C20.4326 19.1561 20.524 19.385 20.5221 19.6226C20.5201 19.8602 20.4249 20.0876 20.257 20.2557C20.089 20.4238 19.8618 20.5192 19.6242 20.5214C19.3865 20.5236 19.1576 20.4323 18.9866 20.2673L14.5 15.782L10.0147 20.2673C9.93114 20.3539 9.83117 20.423 9.72063 20.4705C9.61008 20.5181 9.49118 20.5431 9.37085 20.5442C9.25052 20.5453 9.13117 20.5225 9.01978 20.477C8.90838 20.4314 8.80717 20.3642 8.72204 20.2792C8.63691 20.1941 8.56957 20.093 8.52395 19.9816C8.47833 19.8702 8.45534 19.7509 8.45633 19.6306C8.45732 19.5103 8.48226 19.3913 8.5297 19.2807C8.57715 19.1702 8.64614 19.0701 8.73266 18.9865L13.218 14.4999L8.73266 10.0146C8.64844 9.93045 8.58163 9.83052 8.53605 9.72053C8.49047 9.61054 8.46702 9.49265 8.46702 9.37359C8.46702 9.25453 8.49047 9.13663 8.53605 9.02665C8.58163 8.91666 8.64844 8.81673 8.73266 8.73257Z" fill="#174143"/>
</svg>
