<svg width="17" height="17" viewBox="0 0 17 17" fill="none" xmlns="http://www.w3.org/2000/svg">
<path d="M14.1667 4.24996H11.3333V3.54163C11.3333 2.97804 11.1095 2.43754 10.7109 2.03902C10.3124 1.64051 9.77192 1.41663 9.20833 1.41663H7.79167C7.22808 1.41663 6.68758 1.64051 6.28906 2.03902C5.89055 2.43754 5.66667 2.97804 5.66667 3.54163V4.24996H2.83333C2.64547 4.24996 2.4653 4.32459 2.33247 4.45743C2.19963 4.59026 2.125 4.77043 2.125 4.95829C2.125 5.14615 2.19963 5.32632 2.33247 5.45916C2.4653 5.592 2.64547 5.66663 2.83333 5.66663H3.54167V13.4583C3.54167 14.0219 3.76555 14.5624 4.16406 14.9609C4.56258 15.3594 5.10308 15.5833 5.66667 15.5833H11.3333C11.8969 15.5833 12.4374 15.3594 12.8359 14.9609C13.2345 14.5624 13.4583 14.0219 13.4583 13.4583V5.66663H14.1667C14.3545 5.66663 14.5347 5.592 14.6675 5.45916C14.8004 5.32632 14.875 5.14615 14.875 4.95829C14.875 4.77043 14.8004 4.59026 14.6675 4.45743C14.5347 4.32459 14.3545 4.24996 14.1667 4.24996ZM7.08333 3.54163C7.08333 3.35376 7.15796 3.1736 7.2908 3.04076C7.42364 2.90792 7.6038 2.83329 7.79167 2.83329H9.20833C9.39619 2.83329 9.57636 2.90792 9.7092 3.04076C9.84204 3.1736 9.91667 3.35376 9.91667 3.54163V4.24996H7.08333V3.54163ZM12.0417 13.4583C12.0417 13.6462 11.967 13.8263 11.8342 13.9592C11.7014 14.092 11.5212 14.1666 11.3333 14.1666H5.66667C5.4788 14.1666 5.29864 14.092 5.1658 13.9592C5.03296 13.8263 4.95833 13.6462 4.95833 13.4583V5.66663H12.0417V13.4583Z" fill="#174143"/>
</svg>
