<svg width="19" height="20" viewBox="0 0 19 20" fill="none" xmlns="http://www.w3.org/2000/svg">
<path d="M19 7.22V16.22C19 17.0156 18.6839 17.7787 18.1213 18.3413C17.5587 18.9039 16.7956 19.22 16 19.22H3C2.20435 19.22 1.44129 18.9039 0.87868 18.3413C0.316071 17.7787 0 17.0156 0 16.22V7.22C0 6.11 0.6 5.14 1.5 4.62L9.5 0L17.5 4.62C18.4 5.14 19 6.11 19 7.22ZM1.72 5.69L9.5 10.72L17.28 5.69L9.5 1.15L1.72 5.69ZM9.5 11.93L1.13 6.5C1.05 6.72 1 6.97 1 7.22V16.22C1 16.7504 1.21071 17.2591 1.58579 17.6342C1.96086 18.0093 2.46957 18.22 3 18.22H16C16.5304 18.22 17.0391 18.0093 17.4142 17.6342C17.7893 17.2591 18 16.7504 18 16.22V7.22C18 6.97 17.95 6.72 17.87 6.5L9.5 11.93Z" fill="#174143"/>
</svg>
